<?xml version="1.0" encoding="utf-8"?>
<!-- Generator: Adobe Illustrator 19.1.0, SVG Export Plug-In . SVG Version: 6.00 Build 0)  -->
<svg version="1.1" id="Calque_1" xmlns="http://www.w3.org/2000/svg" xmlns:xlink="http://www.w3.org/1999/xlink" x="0px" y="0px"
	 width="109.1px" height="43.1px" viewBox="-247 376.9 109.1 43.1" enable-background="new -247 376.9 109.1 43.1"
	 xml:space="preserve">
<g id="Layer_1" display="none">
</g>
<g id="Layer_2">
	<path fill="#EFEFED" d="M-142.3,378.6c1.3,0,2.3,1,2.3,2.3c0,1.3-1,2.3-2.3,2.3c-1.3,0-2.3-1-2.3-2.3
		C-144.7,379.6-143.6,378.6-142.3,378.6L-142.3,378.6z M-142.4,379.1c-1,0-1.8,0.8-1.8,1.8c0,1,0.8,1.8,1.8,1.8c1,0,1.7-0.8,1.7-1.8
		C-140.6,379.9-141.3,379.1-142.4,379.1C-142.3,379.1-142.4,379.1-142.4,379.1z M-142.7,382.1h-0.5v-2.3c0.2,0,0.5-0.1,0.9-0.1
		c0.4,0,0.6,0.1,0.8,0.2c0.1,0.1,0.2,0.3,0.2,0.5c0,0.3-0.2,0.5-0.5,0.5v0c0.2,0.1,0.4,0.3,0.4,0.6c0.1,0.4,0.1,0.5,0.2,0.6h-0.6
		c-0.1-0.1-0.1-0.3-0.2-0.5c0-0.3-0.2-0.4-0.5-0.4h-0.3L-142.7,382.1L-142.7,382.1z M-142.7,380.8h0.3c0.3,0,0.5-0.1,0.5-0.3
		c0-0.2-0.2-0.4-0.5-0.4c-0.1,0-0.2,0-0.3,0V380.8z"/>
	<path fill="#EFEFED" d="M-240.9,395.7l-2.7,8h-3.4l8.7-25.5h4l8.7,25.5h-3.5l-2.7-8H-240.9z M-232.6,393.2l-2.5-7.3
		c-0.6-1.7-0.9-3.2-1.3-4.7h-0.1c-0.4,1.5-0.8,3.1-1.3,4.6l-2.5,7.4C-240.3,393.2-232.6,393.2-232.6,393.2z"/>
	<path fill="#EFEFED" d="M-222.9,376.9h3.3v11.5h0.1c1.2-2,3.3-3.4,6.2-3.4c4.5,0,7.8,3.8,7.7,9.3c0,6.5-4.1,9.8-8.2,9.8
		c-2.6,0-4.8-1-6.1-3.4h-0.1l-0.1,3h-2.9c0.1-1.3,0.1-3.1,0.1-4.7L-222.9,376.9L-222.9,376.9z M-219.6,396.4c0,0.4,0.1,0.8,0.1,1.2
		c0.7,2.3,2.6,3.9,5,3.9c3.5,0,5.6-2.8,5.6-7c0-3.7-1.9-6.8-5.4-6.8c-2.3,0-4.4,1.6-5.1,4.1c-0.1,0.4-0.2,0.8-0.2,1.4L-219.6,396.4
		L-219.6,396.4z"/>
	<path fill="#EFEFED" d="M-202.9,391.2c0-2.1,0-4-0.1-5.7h2.9l0.1,3.6h0.2c0.8-2.5,2.8-4,5.1-4c0.4,0,0.6,0,0.9,0.1v3.1
		c-0.3-0.1-0.7-0.1-1.1-0.1c-2.3,0-4,1.8-4.5,4.3c-0.1,0.5-0.2,1-0.2,1.5v9.8h-3.3L-202.9,391.2L-202.9,391.2z"/>
	<rect x="-190.4" y="385.5" fill="#EFEFED" width="3.3" height="18.3"/>
	<path fill="#EFEFED" d="M-177.6,381.1v4.4h4.8v2.5h-4.8v9.9c0,2.3,0.6,3.6,2.5,3.6c0.9,0,1.4-0.1,1.9-0.2l0.1,2.5
		c-0.6,0.3-1.7,0.5-2.9,0.5c-1.6,0-2.8-0.5-3.6-1.4c-0.9-1-1.3-2.6-1.3-4.8v-10h-2.8v-2.5h2.8v-3.3L-177.6,381.1z"/>
	<path fill="#EFEFED" d="M-167.4,395.2c0.1,4.5,2.9,6.3,6.3,6.3c2.4,0,3.8-0.4,5.1-0.9l0.6,2.4c-1.2,0.5-3.2,1.2-6.1,1.2
		c-5.6,0-9-3.7-9-9.3c0-5.5,3.3-9.9,8.6-9.9c6,0,7.6,5.3,7.6,8.6c0,0.7-0.1,1.2-0.1,1.5L-167.4,395.2L-167.4,395.2z M-157.7,392.8
		c0-2.1-0.9-5.4-4.6-5.4c-3.4,0-4.8,3.1-5.1,5.4H-157.7z"/>
	<rect x="-151.1" y="378.5" fill="#EFEFED" width="3.3" height="25.3"/>
	<path fill="#EFEFED" d="M-186.7,380.3c0,1.1-0.8,2-2.1,2c-1.2,0-2-0.9-2-2c0-1.2,0.9-2.1,2.1-2.1
		C-187.5,378.2-186.7,379.2-186.7,380.3"/>
	<polygon fill="#EFEFED" points="-246,409.3 -245.4,409.3 -245.4,416.9 -241.8,416.9 -241.8,417.4 -246,417.4 	"/>
	<path fill="#EFEFED" d="M-237.1,416c0,0.5,0,0.9,0.1,1.4h-0.5l-0.1-0.8h0c-0.3,0.4-0.9,1-1.8,1c-1.2,0-1.7-0.8-1.7-1.6
		c0-1.3,1.2-2.1,3.5-2.1v-0.1c0-0.6-0.1-1.7-1.5-1.7c-0.5,0-1,0.1-1.4,0.4l-0.2-0.4c0.5-0.4,1.2-0.5,1.7-0.5c1.7,0,2,1.3,2,2.3
		L-237.1,416L-237.1,416z M-237.6,414.3c-1.3,0-2.9,0.2-2.9,1.5c0,0.8,0.6,1.2,1.1,1.2c1,0,1.5-0.6,1.7-1.1c0-0.1,0.1-0.2,0.1-0.4
		L-237.6,414.3L-237.6,414.3z"/>
	<polygon fill="#EFEFED" points="-232.6,409.3 -228.6,409.3 -228.6,409.8 -232,409.8 -232,413 -228.9,413 -228.9,413.4 -232,413.4 
		-232,417.4 -232.6,417.4 	"/>
	<path fill="#EFEFED" d="M-224.1,416c0,0.5,0,0.9,0.1,1.4h-0.5l-0.1-0.8h0c-0.3,0.4-0.9,1-1.8,1c-1.2,0-1.7-0.8-1.7-1.6
		c0-1.3,1.2-2.1,3.5-2.1v-0.1c0-0.6-0.1-1.7-1.5-1.7c-0.5,0-1,0.1-1.4,0.4l-0.2-0.4c0.5-0.4,1.2-0.5,1.7-0.5c1.7,0,2,1.3,2,2.3
		L-224.1,416L-224.1,416z M-224.6,414.3c-1.3,0-2.9,0.2-2.9,1.5c0,0.8,0.6,1.2,1.2,1.2c1,0,1.5-0.6,1.7-1.1c0-0.1,0.1-0.2,0.1-0.4
		V414.3z"/>
	<path fill="#EFEFED" d="M-222.2,413c0-0.5,0-0.9-0.1-1.4h0.5l0.1,1h0c0.4-0.7,0.9-1.1,1.9-1.1c0.8,0,1.4,0.5,1.6,1.3h0
		c0.2-0.3,0.4-0.6,0.6-0.8c0.4-0.3,0.8-0.5,1.4-0.5c0.6,0,1.9,0.3,1.9,2.5v3.4h-0.6V414c0-1.3-0.5-2.1-1.5-2.1
		c-0.7,0-1.3,0.5-1.5,1.1c-0.1,0.2-0.1,0.4-0.1,0.6v3.7h-0.6v-3.6c0-1-0.5-1.8-1.4-1.8c-0.8,0-1.4,0.6-1.6,1.3
		c-0.1,0.2-0.1,0.4-0.1,0.5v3.5h-0.6L-222.2,413L-222.2,413z"/>
	<path fill="#EFEFED" d="M-211.6,410c0,0.3-0.2,0.5-0.5,0.5c-0.3,0-0.4-0.2-0.4-0.5s0.2-0.5,0.5-0.5
		C-211.8,409.5-211.6,409.7-211.6,410 M-212.3,411.6h0.6v5.8h-0.6V411.6z"/>
	<rect x="-209.8" y="408.8" fill="#EFEFED" width="0.6" height="8.5"/>
	<rect x="-207.3" y="408.8" fill="#EFEFED" width="0.6" height="8.5"/>
	<path fill="#EFEFED" d="M-204.7,414.4c0,1.9,1,2.6,2.2,2.6c0.8,0,1.3-0.2,1.6-0.3l0.1,0.5c-0.2,0.1-0.8,0.4-1.8,0.4
		c-1.7,0-2.7-1.2-2.7-2.9c0-1.9,1.1-3.1,2.6-3.1c1.9,0,2.2,1.8,2.2,2.6c0,0.2,0,0.3,0,0.4L-204.7,414.4L-204.7,414.4z M-201,414
		c0-0.8-0.3-2-1.7-2c-1.3,0-1.8,1.1-1.9,2H-201z"/>
	<polygon fill="#EFEFED" points="-194.9,409.3 -194.9,412.5 -191.5,412.5 -191.5,409.3 -190.1,409.3 -190.1,417.4 -191.5,417.4 
		-191.5,413.8 -194.9,413.8 -194.9,417.4 -196.4,417.4 -196.4,409.3 	"/>
	<path fill="#EFEFED" d="M-182.9,414.4c0,2.2-1.5,3.1-3,3.1c-1.7,0-2.9-1.1-2.9-3c0-1.9,1.3-3.1,3-3.1
		C-184,411.4-182.9,412.6-182.9,414.4 M-187.3,414.4c0,1.1,0.6,2,1.4,2c0.8,0,1.4-0.8,1.4-2c0-0.9-0.4-2-1.4-2
		C-186.9,412.5-187.3,413.5-187.3,414.4"/>
	<path fill="#EFEFED" d="M-181.6,413.3c0-0.7,0-1.2-0.1-1.7h1.3l0.1,0.9h0c0.3-0.5,0.8-1,1.8-1c0.8,0,1.4,0.4,1.6,1.1h0
		c0.2-0.3,0.4-0.6,0.7-0.7c0.3-0.2,0.7-0.3,1.2-0.3c1,0,2,0.7,2,2.5v3.4h-1.4v-3.2c0-1-0.3-1.5-1-1.5c-0.5,0-0.9,0.4-1,0.8
		c0,0.1-0.1,0.3-0.1,0.5v3.5h-1.4V414c0-0.8-0.3-1.4-1-1.4c-0.6,0-0.9,0.4-1.1,0.8c-0.1,0.1-0.1,0.3-0.1,0.5v3.5h-1.4L-181.6,413.3
		L-181.6,413.3z"/>
	<path fill="#EFEFED" d="M-170.4,414.8c0,1,0.9,1.5,1.8,1.5c0.7,0,1.2-0.1,1.6-0.3l0.2,1c-0.5,0.2-1.2,0.4-2,0.4c-1.9,0-3-1.2-3-3
		c0-1.6,1-3.1,2.9-3.1c1.9,0,2.5,1.6,2.5,2.8c0,0.3,0,0.5-0.1,0.6H-170.4z M-167.9,413.8c0-0.5-0.2-1.4-1.2-1.4
		c-0.9,0-1.3,0.8-1.4,1.4H-167.9z"/>
	<path fill="#EFEFED" d="M-163.6,415.1l-0.7,2.3h-1.5l2.6-8.1h1.9l2.6,8.1h-1.6l-0.7-2.3C-161,415.1-163.6,415.1-163.6,415.1z
		 M-161.3,413.9l-0.6-2c-0.2-0.5-0.3-1-0.4-1.5h0c-0.1,0.5-0.2,1-0.4,1.5l-0.6,2H-161.3z"/>
	<path fill="#EFEFED" d="M-157.1,411.5l0.6,2.6c0.1,0.6,0.3,1.3,0.4,1.9h0c0.1-0.6,0.3-1.3,0.5-1.9l0.8-2.7h1.2l0.7,2.6
		c0.2,0.7,0.3,1.3,0.5,2h0c0.1-0.6,0.2-1.3,0.4-2l0.6-2.6h1.4l-1.8,5.8h-1.4l-0.7-2.4c-0.2-0.6-0.3-1.2-0.4-1.9h0
		c-0.1,0.7-0.3,1.3-0.4,1.9l-0.7,2.4h-1.4l-1.7-5.8H-157.1z"/>
	<path fill="#EFEFED" d="M-144.5,416c0,0.5,0,1,0.1,1.4h-1.3l-0.1-0.6h0c-0.4,0.5-1,0.8-1.7,0.8c-1.2,0-1.8-0.9-1.8-1.7
		c0-1.5,1.3-2.2,3.5-2.2v-0.1c0-0.4-0.2-1-1.2-1c-0.6,0-1.2,0.2-1.6,0.4l-0.3-1c0.4-0.3,1.2-0.5,2.1-0.5c1.9,0,2.4,1.2,2.4,2.5
		L-144.5,416L-144.5,416z M-146,414.5c-1,0-2,0.2-2,1.1c0,0.6,0.4,0.8,0.8,0.8c0.6,0,1-0.4,1.1-0.8c0-0.1,0.1-0.2,0.1-0.3V414.5z"/>
	<path fill="#EFEFED" d="M-142.2,411.5l1.1,3.1c0.1,0.4,0.2,0.8,0.3,1.1h0c0.1-0.3,0.2-0.8,0.3-1.1l0.9-3.1h1.6l-1.5,4
		c-0.8,2.2-1.3,3.1-2,3.8c-0.6,0.5-1.2,0.7-1.6,0.8l-0.3-1.3c0.3-0.1,0.6-0.2,0.9-0.4c0.3-0.2,0.6-0.5,0.8-0.9
		c0.1-0.1,0.1-0.2,0.1-0.3c0-0.1,0-0.1-0.1-0.3l-2.1-5.4L-142.2,411.5L-142.2,411.5z"/>
</g>
</svg>
