<?xml version="1.0" encoding="utf-8"?>
<!-- Generator: Adobe Illustrator 19.1.0, SVG Export Plug-In . SVG Version: 6.00 Build 0)  -->
<svg version="1.1" id="Calque_1" xmlns="http://www.w3.org/2000/svg" xmlns:xlink="http://www.w3.org/1999/xlink" x="0px" y="0px"
	 width="160.2px" height="50px" viewBox="-54.3 462.1 160.2 50" enable-background="new -54.3 462.1 160.2 50" xml:space="preserve"
	>
<g id="Layer_1" display="none">
</g>
<path fill-rule="evenodd" clip-rule="evenodd" fill="#EFEFED" d="M30.1,474.7c0,1.8-1.5,3.3-3.3,3.3c-1.8,0-3.3-1.5-3.3-3.3
	c0-1.8,1.4-3.3,3.3-3.3C28.7,471.5,30.1,472.9,30.1,474.7L30.1,474.7z M16.7,481.3c0,0.3,0,0.8,0,0.8s-1.6-2-4.9-2
	c-5.5,0-9.7,4.2-9.7,9.9c0,5.7,4.2,9.9,9.7,9.9c3.4,0,4.9-2.1,4.9-2.1v0.9c0,0.4,0.3,0.7,0.7,0.7h4.1v-18.8c0,0-3.7,0-4.1,0
	C17,480.6,16.7,480.9,16.7,481.3L16.7,481.3z M16.7,493.3c-0.8,1.1-2.3,2.1-4.1,2.1c-3.2,0-5.7-2-5.7-5.4c0-3.4,2.5-5.4,5.7-5.4
	c1.8,0,3.4,1,4.1,2.1V493.3L16.7,493.3z M24.4,480.6h4.8v18.8h-4.8V480.6L24.4,480.6z M96.2,480.1c-3.3,0-4.9,2-4.9,2v-10.6h-4.8
	v27.9c0,0,3.7,0,4.1,0c0.4,0,0.7-0.4,0.7-0.7v-0.9l0,0c0,0,1.6,2.1,4.9,2.1c5.5,0,9.7-4.2,9.7-9.9
	C105.9,484.3,101.6,480.1,96.2,480.1L96.2,480.1z M95.4,495.3c-1.9,0-3.3-1-4.1-2.1v-6.7c0.8-1,2.4-2.1,4.1-2.1c3.2,0,5.7,2,5.7,5.4
	S98.6,495.3,95.4,495.3L95.4,495.3z M84,488.2v11.2h-4.8v-10.7c0-3.1-1-4.4-3.7-4.4c-1.5,0-3,0.8-3.9,1.9v13.1h-4.8v-18.8h3.8
	c0.4,0,0.7,0.4,0.7,0.7v0.8c1.4-1.5,3.3-2,5.1-2c2.1,0,3.9,0.6,5.3,1.8C83.4,483.3,84,485.1,84,488.2L84,488.2z M55.2,480.1
	c-3.3,0-4.9,2-4.9,2v-10.6h-4.8v27.9c0,0,3.7,0,4.1,0c0.4,0,0.7-0.4,0.7-0.7v-0.9l0,0c0,0,1.6,2.1,4.9,2.1c5.5,0,9.7-4.2,9.7-9.9
	C64.9,484.3,60.6,480.1,55.2,480.1L55.2,480.1z M54.4,495.3c-1.9,0-3.3-1-4.1-2.1v-6.7c0.8-1,2.4-2.1,4.1-2.1c3.2,0,5.7,2,5.7,5.4
	S57.6,495.3,54.4,495.3L54.4,495.3z M41.4,480.1c1.5,0,2.2,0.2,2.2,0.2v4.5c0,0-4-1.4-6.5,1.5v13.2h-4.8v-18.9c0,0,3.7,0,4.1,0
	c0.4,0,0.7,0.4,0.7,0.7v0.8C37.9,481,39.9,480.1,41.4,480.1L41.4,480.1z M-8.5,497.7c-0.3-0.6-0.5-1.3-0.8-1.8
	c-0.4-0.9-0.8-1.8-1.2-2.6l-0.1-0.1c-3.5-7.5-7.2-15.1-11.1-22.6l-0.2-0.3c-0.4-0.8-0.8-1.6-1.2-2.4c-0.5-0.9-1-1.9-1.8-2.8
	c-1.6-2-3.9-3.1-6.4-3.1c-2.5,0-4.8,1.1-6.4,3c-0.8,0.9-1.3,1.9-1.8,2.8c-0.4,0.8-0.8,1.6-1.2,2.4l-0.2,0.3
	c-3.9,7.5-7.6,15.1-11.1,22.6l-0.1,0.1c-0.4,0.8-0.8,1.7-1.2,2.6c-0.2,0.6-0.5,1.2-0.8,1.8c-0.7,1.9-0.9,3.6-0.6,5.4
	c0.6,3.8,3.1,6.9,6.5,8.3c1.3,0.6,2.7,0.8,4.1,0.8c0.4,0,0.9-0.1,1.3-0.1c1.7-0.2,3.4-0.8,5-1.7c2.1-1.2,4-2.8,6.2-5.2
	c2.2,2.4,4.2,4.1,6.2,5.2c1.7,1,3.4,1.5,5,1.7c0.4,0.1,0.9,0.1,1.3,0.1c1.4,0,2.8-0.3,4.1-0.8c3.5-1.4,6-4.6,6.5-8.3
	C-7.7,501.3-7.9,499.5-8.5,497.7L-8.5,497.7z M-31.1,500.3c-2.7-3.4-4.5-6.6-5.1-9.3c-0.3-1.2-0.3-2.2-0.2-3.1
	c0.1-0.8,0.4-1.5,0.8-2.1c1-1.4,2.6-2.2,4.4-2.2c1.9,0,3.5,0.8,4.4,2.2c0.4,0.6,0.7,1.3,0.8,2.1c0.1,0.9,0.1,2-0.2,3.1
	C-26.7,493.6-28.4,496.8-31.1,500.3L-31.1,500.3z M-11.1,502.6c-0.4,2.6-2.1,4.9-4.6,5.9c-1.2,0.5-2.5,0.7-3.8,0.5
	c-1.3-0.2-2.5-0.6-3.8-1.3c-1.8-1-3.6-2.6-5.7-4.9c3.3-4.1,5.3-7.8,6.1-11.1c0.4-1.6,0.4-3,0.3-4.3c-0.2-1.3-0.7-2.4-1.4-3.4
	c-1.6-2.3-4.2-3.6-7.1-3.6c-2.9,0-5.5,1.4-7.1,3.6c-0.7,1-1.2,2.2-1.4,3.4c-0.2,1.3-0.2,2.8,0.3,4.3c0.8,3.3,2.8,7.1,6.1,11.1
	c-2.1,2.3-3.9,3.9-5.7,4.9c-1.3,0.8-2.6,1.2-3.8,1.3c-1.4,0.1-2.7-0.1-3.8-0.5c-2.5-1-4.2-3.3-4.6-5.9c-0.2-1.3-0.1-2.5,0.5-3.9
	c0.2-0.5,0.4-1,0.7-1.6c0.4-0.8,0.8-1.7,1.2-2.5l0.1-0.1c3.5-7.5,7.2-15.1,11-22.5l0.2-0.3c0.4-0.8,0.8-1.6,1.2-2.3
	c0.4-0.8,0.9-1.6,1.4-2.2c1.1-1.2,2.5-1.9,4-1.9c1.6,0,3,0.7,4,1.9c0.6,0.7,1,1.4,1.4,2.2c0.4,0.8,0.8,1.6,1.2,2.3l0.1,0.3
	c3.8,7.5,7.5,15.1,11,22.5v0.1c0.4,0.8,0.8,1.7,1.2,2.5c0.3,0.6,0.5,1.1,0.7,1.6C-11.1,500.1-10.9,501.3-11.1,502.6L-11.1,502.6z"/>
</svg>
