<?xml version="1.0" encoding="utf-8"?>
<!-- Generator: Adobe Illustrator 19.1.0, SVG Export Plug-In . SVG Version: 6.00 Build 0)  -->
<svg version="1.1" id="Layer_1" xmlns="http://www.w3.org/2000/svg" xmlns:xlink="http://www.w3.org/1999/xlink" x="0px" y="0px"
	 width="239.3px" height="50px" viewBox="0 0 239.3 50" enable-background="new 0 0 239.3 50" xml:space="preserve">
<g opacity="0.84">
	<path fill="#EFEFED" d="M20.4,0.4c0.6-0.3,1.4-0.6,2.1-0.4c0.7,0.2,1.3,0.6,2,0.9c6,3.4,11.9,6.9,17.9,10.3c0.6,0.4,1,1,1.3,1.7
		c-0.2-0.1-0.4-0.2-0.7-0.3c-6.3,3.7-12.7,7.3-19,11c-0.8,0.5-1.8,0.8-2.7,0.6c-0.7-0.1-1.3-0.6-1.9-0.9c-5.7-3.3-11.5-6.6-17.2-9.9
		c-0.4-0.2-0.8-0.5-1.2-0.6c-0.3,0-0.5,0.1-0.7,0.2c0.3-0.6,0.7-1.2,1.3-1.6C7.8,7.7,14.1,4.1,20.4,0.4L20.4,0.4z"/>
	<path fill="#FFFEFE" d="M26.4,4.5c0.5-0.3,0.9,0.2,1.3,0.4c-0.5,0.3-0.9,0.5-1.4,0.8c1.8,1,3.6,2,5.5,3c0.3,0.2,0.6,0.3,0.7,0.6
		c0.1,0.3,0,0.7-0.3,0.9c-0.4,0.3-0.9,0.5-1.3,0.8c-4.2,2.4-8.4,4.8-12.5,7.2c-0.8,0.4-1.7,0.6-2.6,0.3c-0.5-0.2-0.9-0.4-1.4-0.7
		c-1.3-0.7-2.7-1.5-4-2.2c-0.3-0.2-0.8-0.4-0.8-0.9c0-0.5,0.4-0.8,0.7-1C15.7,10.7,21,7.6,26.4,4.5L26.4,4.5z"/>
	<path fill="#EFEFED" d="M24.3,6.8c0.5-0.3,1.1-0.4,1.7-0.1c1.4,0.7,2.7,1.5,4.1,2.2c0.3,0.2,0.6,0.4,0.8,0.6
		c-0.2,0.2-0.5,0.5-0.8,0.7c-1.6,0.9-3.1,1.8-4.6,2.7c-0.5,0.3-1.1,0.4-1.6,0.1c-1.4-0.8-2.9-1.6-4.3-2.3c-0.2-0.2-0.6-0.3-0.6-0.7
		c0.2-0.3,0.5-0.4,0.8-0.6C21.3,8.6,22.8,7.7,24.3,6.8L24.3,6.8z"/>
	<path fill="#EFEFED" d="M15.7,11.8c0.4-0.3,0.8-0.7,1.3-0.7c0.6,0.2,1.1,0.5,1.6,0.8c-0.4,0.2-0.9,0.6-1.4,0.7
		C16.7,12.5,16.2,12.1,15.7,11.8L15.7,11.8z"/>
	<path fill="#EFEFED" d="M17.9,13.1c0.4-0.3,0.9-0.5,1.3-0.8c0.5,0.3,1,0.6,1.5,0.9c-0.4,0.2-0.9,0.5-1.3,0.8
		C18.9,13.6,18.4,13.4,17.9,13.1L17.9,13.1z"/>
	<path fill="#EFEFED" d="M13.5,13c0.4-0.3,0.8-0.6,1.3-0.6c0.6,0.2,1.1,0.5,1.7,0.8c-0.4,0.2-0.8,0.5-1.3,0.7
		C14.5,13.8,14,13.4,13.5,13L13.5,13z"/>
	<path fill="#EFEFED" d="M220.3,13.3c1.4-0.4,2.9-0.6,4.3-0.5c0.2,1.1,0.4,2.3,0.7,3.5c0,0.3,0.3,0.8-0.1,1
		c-0.8,0.3-1.7,0.2-2.4,0.6c-0.3,0.2-0.5,0.5-0.6,0.9c-0.2,0.8-0.2,1.7-0.1,2.5c1.1,0,2.2-0.1,3.4,0c0.1,1.5,0.1,3.1,0.1,4.6
		c0,0.2,0,0.7-0.3,0.7c-1,0.1-1.9,0-2.9,0c0.1,1.6,0.1,3.1,0.1,4.7c0.1,1.7,0.2,3.4,0.2,5.1c0.1,0.5-0.5,0.5-0.8,0.5
		c-1.3,0.1-2.6,0.1-3.9,0c-0.4,0-0.8,0-1.2-0.2c-0.3-0.1-0.3-0.6-0.3-0.9c0-2.5,0-4.9,0-7.4c0-0.5,0-1,0-1.6
		c-0.5-0.3-1.2-0.1-1.8-0.2c-0.2-1.3-0.1-2.6-0.2-4c0-0.4-0.1-0.9,0.3-1.1c0.4-0.2,0.9-0.1,1.4-0.2c-0.1-1.8-0.2-3.7,0.5-5.3
		C217.4,14.7,218.8,13.8,220.3,13.3L220.3,13.3z"/>
	<path fill="#EFEFED" d="M20,14.2c0.4-0.3,0.9-0.5,1.3-0.8c0.6,0.3,1.2,0.6,1.7,1c-0.4,0.3-0.8,0.6-1.3,0.6
		C21,14.9,20.5,14.5,20,14.2L20,14.2z"/>
	<path fill="#EFEFED" d="M11.4,14.4c0.1-0.5,0.7-0.6,1.2-0.7c0.6,0.1,1.1,0.5,1.7,0.8c-0.4,0.3-0.9,0.5-1.3,0.8
		C12.4,15,11.9,14.8,11.4,14.4L11.4,14.4z"/>
	<path fill="#EFEFED" d="M15.7,14.3c0.4-0.3,0.9-0.5,1.3-0.8c0.5,0.3,1,0.6,1.5,0.9c-0.4,0.3-0.9,0.5-1.3,0.8
		C16.7,14.9,16.2,14.6,15.7,14.3L15.7,14.3z"/>
	<path fill="#D3D3D3" d="M53.9,13.8c1.2-0.1,2.5,0,3.7-0.1c0.9,0,1.9,0,2.8,0.1c0,1.3-0.2,2.7-0.2,4c-0.1,3-0.3,6.1-0.2,9.1
		c0,2.4,0,4.9,0,7.3c0,0.8,0.1,1.6,0.1,2.4c-0.3,0.3-0.7,0.2-1.1,0.3c-1.3,0.1-2.7,0.1-4,0c-0.4,0-0.9-0.2-0.8-0.7
		c0-2.5,0-4.9,0.1-7.4c0-2.3,0-4.7,0-7c0-1.7-0.1-3.4-0.2-5.1C54.1,15.7,53.9,14.8,53.9,13.8L53.9,13.8z"/>
	<path fill="#EFEFED" d="M23.9,24.9c6.4-3.7,12.7-7.3,19.1-11c0.3,0.2,0.6,0.4,0.9,0.5c0,7,0,14,0,21c0.1,1.2-0.6,2.5-1.6,3.1
		c-6.3,3.6-12.5,7.2-18.7,10.8c-0.3-0.3-0.7-0.6-1-1c0-6.9,0-13.8,0-20.6c0-0.5,0-0.9,0-1.4c-0.1-0.3-0.4-0.6-0.6-0.9
		C22.6,25.3,23.3,25.2,23.9,24.9L23.9,24.9z"/>
	<path fill="#D3D3D3" d="M0,14.5c0.3-0.1,0.6-0.3,0.9-0.4c6.1,3.5,12.3,7.1,18.4,10.6c0.4,0.2,0.8,0.4,1.1,0.7
		c0.4,0.4,0.7,1,1.1,1.4c0,7.4,0,14.8,0,22.2c0.3,0.3,0.6,0.6,1,0.9c-0.8,0.1-1.6-0.1-2.3-0.6C14,45.9,8,42.4,1.9,38.9
		c-1-0.5-1.7-1.6-1.9-2.7C0,29,0,21.7,0,14.5L0,14.5z"/>
	<path fill="#D3D3D3" d="M177,14.4c1-0.3,2.2-0.2,3.1,0.5c0.7,0.5,1.2,1.3,1.2,2.2c0,0.8-0.2,1.6-0.8,2.2c-0.7,0.6-1.6,0.7-2.4,0.7
		c-0.9,0-1.9-0.3-2.6-1c-0.8-0.9-0.9-2.4-0.2-3.4C175.8,15,176.4,14.6,177,14.4L177,14.4z"/>
	<path fill="#EFEFED" d="M17.8,15.5c0.4-0.3,0.9-0.5,1.3-0.8c0.6,0.3,1.1,0.6,1.7,0.9c-0.4,0.3-0.8,0.7-1.3,0.7
		C18.8,16.1,18.3,15.7,17.8,15.5L17.8,15.5z"/>
	<path fill="#EFEFED" d="M13.5,15.6c0.4-0.3,0.8-0.6,1.3-0.7c0.6,0.2,1,0.5,1.6,0.8c-0.4,0.3-0.9,0.5-1.3,0.8
		C14.5,16.1,14,15.9,13.5,15.6L13.5,15.6z"/>
	<path fill="#EFEFED" d="M15.6,16.7c0.4-0.3,0.8-0.5,1.3-0.8c0.6,0.3,1.2,0.6,1.7,1c-0.4,0.3-0.8,0.5-1.2,0.7
		C16.8,17.4,16.2,17.1,15.6,16.7L15.6,16.7z"/>
	<path fill="#FFFEFE" d="M5.6,20.4c0.7,0.1,1.4,0.4,2.1,0.7c2.3,1.1,4.4,2.3,6.5,3.7c0.5,0.4,1.1,0.8,1.5,1.3
		c0.6,1.1,0.9,2.4,1.3,3.5c0.5,0.4,1.2,0.7,1.7,1.3c0.2,0.2,0.2,0.6,0.2,0.9c-0.4-0.1-0.9-0.2-1.3-0.2c0.7,1.3,1.2,2.7,1.7,4.1
		c0.1,1.1,0,2.3,0.1,3.5c0,1.9,0,3.7,0,5.6c-1-0.6-2-1-2.9-1.6c-0.1-0.5,0-1,0-1.5c-1.9-1-3.8-2-5.7-3.1c-2.1-1.2-4.1-2.5-6.1-3.7
		c0,0.5,0,1,0,1.5c-1-0.5-2-1.1-2.9-1.7c0-2.7,0-5.5,0-8.2c0-0.5,0.2-1,0.5-1.4c0.4-0.5,1-0.8,1.6-1.3c-0.4-0.4-0.8-0.8-1.2-1.3
		c-0.2-0.2-0.1-0.5-0.2-0.8c0.7,0,1.3,0.4,1.9,0.8C4.6,21.7,4.9,20.8,5.6,20.4L5.6,20.4z"/>
	<path fill="#D3D3D3" d="M144.6,21.2c1.5-0.9,3.3-1.1,5-1c1.3,0.1,2.5,0.5,3.6,1.1c0.3,0.2,0.1,0.6,0.1,0.9c-0.3,1.2-0.6,2.4-1,3.5
		c-0.1,0.4-0.6,0.1-0.8,0.1c-1.1-0.3-2.4-0.6-3.6,0c-1.6,0.8-2,3-1.2,4.5c0.6,1.1,2,1.6,3.2,1.5c0.8-0.1,1.6-0.4,2.4-0.7
		c0.5,1,0.6,2.1,0.8,3.2c0.1,0.5,0.2,1.1,0.1,1.6c-0.4,0.5-1.1,0.6-1.8,0.8c-1.7,0.4-3.5,0.6-5.2,0.1c-2.4-0.7-4.4-2.6-5.2-4.9
		c-0.6-1.6-0.7-3.4-0.4-5.2C141.1,24.5,142.6,22.4,144.6,21.2L144.6,21.2z"/>
	<path fill="#D3D3D3" d="M127.2,22.8c1.4-0.9,2.8-1.9,4.5-2.2c1.6-0.2,3.4,0.1,4.7,1.2c0.8,0.7,1.2,1.8,1.1,2.8c0,3.7,0,7.5,0,11.2
		c0,0.3,0.1,0.7-0.3,0.8c-0.7,0.2-1.4,0.1-2.1,0.1c-1,0-2.1,0.1-3.1-0.1c-0.3-0.1-0.4-0.4-0.4-0.7c0-1.1,0-2.2,0.1-3.4
		c0.1-1.5-0.1-3,0-4.4c0-0.7,0-1.4-0.4-1.9c-0.4-0.6-1.1-0.8-1.8-0.7c-0.7,0.1-1.4,0.5-1.8,1.1c-0.2,0.2-0.3,0.5-0.3,0.8
		c0,2.9,0,5.7,0,8.6c0,0.2,0,0.6-0.3,0.7c-0.8,0.2-1.7,0.1-2.5,0.1c-1,0-2.1,0.1-3-0.3c-0.1-1.4,0-2.8,0-4.2c0-2.8,0.1-5.6-0.3-8.4
		c-0.1-0.8-0.4-1.6-0.4-2.4c1.1-0.2,2.3-0.3,3.4-0.5c0.8-0.2,1.7-0.3,2.6-0.4C127.1,21.3,127,22.1,127.2,22.8L127.2,22.8z"/>
	<path fill="#D3D3D3" d="M194.8,20.8c0.9-0.3,2-0.3,2.9-0.1c1.2,0.3,2.5,0.9,3.1,2.1c0.5,0.9,0.5,2,0.5,3c0,3.6,0,7.1,0,10.7
		c0,0.1-0.1,0.2-0.2,0.3c-1,0.2-2,0.1-3,0.1c-0.8,0-1.6,0-2.4-0.1c-0.4-0.1-0.4-0.6-0.4-0.9c0.1-2.2,0.1-4.4,0.1-6.6
		c-0.1-0.9,0.1-1.9-0.4-2.8c-0.5-0.8-1.7-1-2.6-0.5c-0.6,0.3-1.4,0.8-1.4,1.6c0,2.9,0,5.8,0,8.7c0,0.2-0.1,0.5-0.4,0.6
		c-0.7,0.1-1.5,0.1-2.2,0.1c-1,0-2,0.1-2.9-0.1c-0.3-0.1-0.4-0.4-0.4-0.7c0-2,0-3.9,0.1-5.9c0-2.8,0-5.6-0.7-8.3
		c0-0.1,0.1-0.2,0.1-0.3c1.3-0.2,2.6-0.3,3.8-0.6c0.7-0.1,1.4-0.3,2.1-0.3c0.2,0.7,0.2,1.5,0.3,2.2
		C192.2,22.1,193.4,21.2,194.8,20.8L194.8,20.8z"/>
	<path fill="#EFEFED" d="M231.2,21c0.7-0.2,1.5-0.3,2.2-0.4c0.2,0.7,0.2,1.4,0.4,2c1.6-1,3.4-2,5.3-1.6c0,0.1,0.1,0.2,0.2,0.3
		c-0.1,1.5-0.3,3-0.2,4.6c0,0.4,0.2,1.1-0.4,1.3c-0.7,0.1-1.5-0.1-2.2,0c-0.7,0-1.5,0-1.9,0.6c-0.4,0.6-0.3,1.4-0.3,2.1
		c0.1,1.7,0,3.4,0.1,5.1c0,0.6,0.1,1.2,0,1.8c-0.5,0.3-1.1,0.2-1.6,0.2c-1.3,0-2.6,0.1-3.9-0.1c-0.4-0.1-0.4-0.5-0.4-0.8
		c0-1.3,0-2.6,0-3.9c0.1-3.3,0.2-6.6-0.6-9.8c0-0.2-0.1-0.5-0.1-0.7C228.9,21.3,230.1,21.2,231.2,21L231.2,21z"/>
	<path fill="#D3D3D3" d="M174.8,21.3c0.9-0.2,1.8,0,2.7,0.1c1.3,0.1,2.6-0.2,3.8-0.1c0,0.5,0,0.9-0.1,1.4c-0.3,3.8-0.3,7.5-0.2,11.3
		c0,0.9,0,1.8,0,2.6c-0.8,0.3-1.7,0.2-2.5,0.3c-1,0-2.1,0.1-3.1-0.2c-0.4-0.1-0.3-0.5-0.3-0.8c0-3.7,0.2-7.4,0-11.1
		C175.1,23.6,174.9,22.5,174.8,21.3L174.8,21.3z"/>
	<path fill="#D3D3D3" d="M5.8,21.8c0.2-0.3,0.6-0.2,0.9-0.1c1.3,0.4,2.6,1.1,3.8,1.7c1.1,0.7,2.2,1.4,3.3,2.2c0.5,0.4,1,0.7,1.4,1.1
		c0.3,0.4,0.5,1,0.7,1.4c0.3,1,0.7,2,1,3c-4-2.3-8-4.6-12-6.9C5,23.4,5.2,22.5,5.8,21.8L5.8,21.8z"/>
	<path fill="#FFFEFE" d="M37.4,22.3c0.4-0.2,0.7-0.4,1.1-0.6c0,0.9,0,1.8,0,2.7c1.1,0.2,2.2,0.4,3.3,0.7c0,0.2-0.1,0.5-0.1,0.7
		c-2.8-0.6-5.7-1.1-8.5-1.7c-2.9,3.8-5.7,7.6-8.6,11.5c-0.2-0.1-0.4-0.3-0.6-0.4c3-3.9,5.9-7.9,8.9-11.8c1.5,0.3,2.9,0.6,4.4,0.9
		C37.3,23.5,37.4,22.9,37.4,22.3L37.4,22.3z"/>
	<path fill="#D3D3D3" d="M68.5,20.6c1.8-0.6,3.8-0.7,5.6-0.1c3.2,1.2,5.4,4.6,4.9,7.9c-0.1,0.6-0.4,1.2-1.1,1.3
		c-3,0.4-6.1,0.6-9.1,0.9c0.2,0.6,0.6,1.1,1.1,1.4c1.4,0.8,3.3,0.8,4.8,0.1c0.6-0.3,1.2-0.7,1.8-1c0.4,0.2,0.6,0.7,0.9,1
		c0.4,0.8,1,1.6,1.2,2.6c-1,1.3-2.6,2-4.2,2.3c-2.1,0.3-4.4,0.3-6.3-0.6c-2-0.9-3.7-2.7-4.3-4.8c-0.5-1.8-0.5-3.8,0-5.7
		C64.4,23.6,66.2,21.4,68.5,20.6L68.5,20.6z M68.6,26.9c0,0.2,0.1,0.5,0.4,0.6c0.7,0.1,1.4-0.1,2-0.1c0.8-0.1,1.6-0.1,2.4-0.4
		c0-1.1-0.7-2.2-1.8-2.6c-0.6-0.1-1.2-0.1-1.7,0.2"/>
	<path fill="#FFFEFE" d="M33.3,24.7c2.5,0.4,5,0.9,7.4,1.4c0,3.3,0,6.5,0,9.8c-4.9,2.8-9.8,5.6-14.7,8.5c0-3.1,0-6.2,0-9.3
		c0-0.3,0-0.6,0.2-0.8C28.6,31.1,30.9,27.9,33.3,24.7L33.3,24.7z"/>
	<path fill="#D3D3D3" d="M82.4,13.6c1.8-0.1,3.7-0.4,5.5-0.4c0.2,0.6,0.1,1.2,0.1,1.7c-0.2,2.2-0.2,4.4-0.2,6.6
		c0,0.2,0.1,0.4,0.2,0.6c0.5-0.4,1-0.9,1.6-1.2c1.5-0.8,3.4-0.7,5-0.2c2.1,0.6,3.7,2.4,4.4,4.4c0.6,1.8,0.7,3.7,0.4,5.6
		c-0.4,2.2-1.7,4.3-3.7,5.4c-1.5,0.9-3.3,1-5,0.7c-1-0.2-2-0.8-2.8-1.4c-0.2,0.4-0.3,0.9-0.5,1.3c-0.3,0.1-0.6,0.1-0.9,0.1
		c-1.3,0-2.7,0-4,0c-0.3,0-0.6-0.1-0.9-0.2c0.3-2.7,0.3-5.4,0.4-8.1c0-3.9,0-7.9-0.3-11.8c-0.1-1-0.2-1.9-0.2-2.9
		C81.8,13.7,82.1,13.6,82.4,13.6L82.4,13.6z M90.2,25.4c-0.6,0.1-1.2,0.4-1.6,0.9c-0.8,1-1,2.3-0.6,3.5c0.2,0.9,0.9,1.6,1.8,1.9
		c1,0.3,2.3,0.1,3-0.7c1.3-1.3,1.2-3.8-0.2-5C91.9,25.4,91,25.2,90.2,25.4L90.2,25.4z"/>
	<path fill="#D3D3D3" d="M162.6,20.4c2.3-0.2,4.8,0.3,6.6,1.9c1.5,1.3,2.4,3.1,2.6,5c0.3,2.4-0.1,5-1.7,6.9
		c-1.3,1.7-3.4,2.7-5.5,2.8c-2.3,0.2-4.8-0.3-6.5-1.9c-1.1-0.9-1.9-2.2-2.3-3.6c-0.5-1.6-0.5-3.3-0.2-4.9c0.4-2.1,1.6-4,3.4-5.1
		C160.1,20.9,161.3,20.5,162.6,20.4L162.6,20.4z M163.1,25.5c-1,0.2-1.8,1-2.1,1.9c-0.5,1.3-0.3,2.8,0.7,3.8c1,1.1,3.1,1.1,4-0.1
		c1.1-1.3,1.1-3.5-0.1-4.8C164.9,25.6,164,25.3,163.1,25.5L163.1,25.5z"/>
	<path fill="#D3D3D3" d="M108.2,20.5c1.9-0.3,4-0.2,5.8,0.7c2,1,3.6,3,4,5.2c0.3,1,0.2,2,0.2,3c-0.1,2.2-1.1,4.5-2.8,5.9
		c-1.7,1.5-4.1,2-6.4,1.8c-1.6-0.1-3.1-0.7-4.3-1.7c-1.7-1.3-2.7-3.3-2.9-5.3c-0.3-2.5,0.2-5.1,1.9-7
		C104.9,21.7,106.5,20.8,108.2,20.5L108.2,20.5z M109.1,25.6c-1.9,0.7-2.5,3.4-1.4,5c0.5,0.8,1.4,1.4,2.3,1.3
		c0.9,0.1,1.8-0.4,2.3-1.2c1-1.4,0.8-3.4-0.4-4.6C111.2,25.5,110.1,25.2,109.1,25.6L109.1,25.6z"/>
	<path fill="#D3D3D3" d="M2.5,26.4c0.2-0.3,0.6-0.1,0.8,0.1c0.7,0.7,1.5,1.4,2.2,2.1c0.5,0.5,0.7,1.3,0.3,1.9
		c-0.4-0.1-0.7-0.4-1.1-0.6c-0.8-0.5-1.6-1.1-2.4-1.7C2.4,27.6,2.3,27,2.5,26.4L2.5,26.4z"/>
	<path fill="#EFEFED" d="M207.5,29.4c0.9-0.1,1.8-0.1,2.6,0.3c1.3,0.7,2.3,2.1,2.2,3.6c0,2-1.7,3.8-3.7,3.8c-2,0.1-3.8-1.6-3.9-3.5
		C204.3,31.7,205.6,29.8,207.5,29.4L207.5,29.4z"/>
	<path fill="#EFEFED" d="M31.2,34.4c0.5-0.4,1.1-0.7,1.7-1c0,1.5,0,3,0,4.5c0,0.4,0,0.8-0.3,1c-0.5,0.4-1.2,0.7-1.7,1
		c0-1.5,0-2.9,0-4.4C30.8,35.1,30.8,34.6,31.2,34.4L31.2,34.4z"/>
	<path fill="#D3D3D3" d="M15,34.2c0.8,0.1,1.7,0.2,2.5,0.3c0.4,0.1,0.7,0.5,0.8,0.9c0.1,0.6,0.1,1.3,0.1,1.9
		c-0.9-0.3-1.8-0.7-2.6-1.1c-0.3-0.2-0.7-0.3-0.9-0.7C14.7,35.2,14.8,34.7,15,34.2L15,34.2z"/>
</g>
</svg>
