<?xml version="1.0" encoding="utf-8"?>
<!-- Generator: Adobe Illustrator 15.1.0, SVG Export Plug-In . SVG Version: 6.00 Build 0)  -->
<!DOCTYPE svg PUBLIC "-//W3C//DTD SVG 1.1//EN" "http://www.w3.org/Graphics/SVG/1.1/DTD/svg11.dtd">
<svg version="1.1" id="Layer_2" xmlns="http://www.w3.org/2000/svg" xmlns:xlink="http://www.w3.org/1999/xlink" x="0px" y="0px"
	 width="292px" height="50px" viewBox="0 0 292 50" enable-background="new 0 0 292 50" xml:space="preserve">
<g>
	<g>
		<g>
			<defs>
				<path id="SVGID_1_" d="M103.7,13c1.29,0,2.28,0.99,2.28,2.28c0,1.29-0.99,2.28-2.28,2.28c-1.29,0-2.28-0.99-2.28-2.28
					C101.32,13.99,102.41,13,103.7,13L103.7,13z M103.7,13.5c-0.99,0-1.79,0.79-1.79,1.78s0.79,1.78,1.79,1.78
					c0.99,0,1.68-0.79,1.68-1.78S104.69,13.5,103.7,13.5L103.7,13.5z M103.3,16.47h-0.49v-2.28c0.2,0,0.49-0.1,0.89-0.1
					c0.4,0,0.6,0.1,0.79,0.2c0.1,0.1,0.2,0.3,0.2,0.49c0,0.3-0.2,0.5-0.49,0.5l0,0c0.2,0.1,0.4,0.2,0.4,0.59
					c0.1,0.4,0.1,0.5,0.2,0.5h-0.59c-0.1-0.1-0.1-0.3-0.2-0.5c0-0.2-0.2-0.4-0.49-0.4h-0.2V16.47L103.3,16.47L103.3,16.47z
					 M103.3,15.18h0.2c0.3,0,0.49-0.1,0.49-0.3c0-0.2-0.1-0.4-0.49-0.4c-0.1,0-0.2,0-0.3,0v0.69H103.3z M6.04,30.03l-2.67,7.93H0
					L8.62,12.7h3.96l8.62,25.26h-3.47l-2.67-7.93H6.04z M14.26,27.46l-2.47-7.23c-0.6-1.68-0.89-3.17-1.29-4.55h-0.1
					c-0.4,1.48-0.79,3.07-1.29,4.55l-2.48,7.33h7.62V27.46z M23.87,11.32h3.27v11.39h0.1c1.19-1.98,3.27-3.37,6.14-3.37
					c4.46,0,7.72,3.76,7.63,9.21c0,6.44-4.06,9.71-8.12,9.71c-2.57,0-4.75-0.99-6.04-3.37h-0.1l-0.1,2.97h-2.87
					c0.1-1.19,0.2-3.07,0.2-4.66L23.87,11.32L23.87,11.32z M27.14,30.63c0,0.4,0.1,0.8,0.1,1.19c0.59,2.28,2.57,3.86,4.95,3.86
					c3.47,0,5.55-2.77,5.55-6.93c0-3.67-1.88-6.74-5.35-6.74c-2.28,0-4.36,1.59-5.05,4.06c-0.1,0.4-0.2,0.79-0.2,1.39V30.63
					L27.14,30.63z M43.68,25.48c0-2.08,0-3.96-0.2-5.64h2.87l0.1,3.56h0.2c0.79-2.47,2.77-3.96,5.05-3.96c0.39,0,0.59,0,0.89,0.1
					v3.07c-0.3-0.1-0.69-0.1-1.09-0.1c-2.28,0-3.96,1.78-4.46,4.26c-0.1,0.39-0.1,0.99-0.1,1.48v9.71h-3.37L43.68,25.48L43.68,25.48
					z M56.06,19.84h3.27v18.12h-3.27V19.84z M68.74,15.48v4.36h4.75v2.47h-4.75v9.81c0,2.28,0.59,3.57,2.48,3.57
					c0.89,0,1.39-0.1,1.88-0.2l0.2,2.48c-0.6,0.3-1.69,0.5-2.87,0.5c-1.58,0-2.77-0.5-3.57-1.39c-0.89-0.99-1.29-2.57-1.29-4.75
					v-9.91H62.8v-2.48h2.77v-3.27L68.74,15.48z M78.84,29.44c0.1,4.46,2.87,6.34,6.24,6.34c2.38,0,3.76-0.39,5.05-0.99l0.59,2.37
					c-1.19,0.5-3.17,1.19-6.04,1.19c-5.55,0-8.92-3.67-8.92-9.21c0-5.54,3.17-9.8,8.52-9.8c5.94,0,7.53,5.15,7.53,8.52
					c0,0.7-0.1,1.19-0.1,1.58H78.84L78.84,29.44z M88.45,27.16c0-2.08-0.89-5.35-4.56-5.35c-3.37,0-4.75,3.07-5.05,5.35H88.45z
					 M94.99,12.9h3.27v25.06h-3.27V12.9z M59.72,14.69c0,1.09-0.79,1.98-2.08,1.98c-1.19,0-1.98-0.89-1.98-1.98
					c0-1.19,0.89-2.08,2.08-2.08C58.93,12.7,59.72,13.6,59.72,14.69z"/>
			</defs>
			<use xlink:href="#SVGID_1_"  overflow="visible" fill="#FFFFFF"/>
			<clipPath id="SVGID_2_">
				<use xlink:href="#SVGID_1_"  overflow="visible"/>
			</clipPath>
			<rect x="-4.95" y="6.37" clip-path="url(#SVGID_2_)" fill="#FFFFFF" width="115.89" height="36.85"/>
		</g>
	</g>
	<g>
		<g>
			<defs>
				<polygon id="SVGID_3_" points="114.79,13.2 114.79,23.6 126.78,23.6 126.78,13.2 130.05,13.2 130.05,37.96 126.78,37.96 
					126.78,26.38 114.79,26.38 114.79,37.96 111.63,37.96 111.63,13.2 				"/>
			</defs>
			<use xlink:href="#SVGID_3_"  overflow="visible" fill="#FFFFFF"/>
			<clipPath id="SVGID_4_">
				<use xlink:href="#SVGID_3_"  overflow="visible"/>
			</clipPath>
			<rect x="106.67" y="8.25" clip-path="url(#SVGID_4_)" fill="#FFFFFF" width="28.33" height="34.57"/>
		</g>
	</g>
	<g>
		<g>
			<defs>
				<path id="SVGID_5_" d="M150.65,28.95c0,6.53-4.55,9.41-8.81,9.41c-4.75,0-8.52-3.56-8.52-9.11c0-5.95,3.86-9.41,8.82-9.41
					C147.18,19.74,150.65,23.5,150.65,28.95 M136.59,29.05c0,3.86,2.28,6.83,5.35,6.83s5.35-2.87,5.35-6.93
					c0-2.97-1.49-6.84-5.35-6.84C138.17,22.21,136.59,25.68,136.59,29.05"/>
			</defs>
			<use xlink:href="#SVGID_5_"  overflow="visible" fill="#FFFFFF"/>
			<clipPath id="SVGID_6_">
				<use xlink:href="#SVGID_5_"  overflow="visible"/>
			</clipPath>
			<rect x="128.27" y="14.78" clip-path="url(#SVGID_6_)" fill="#FFFFFF" width="27.24" height="28.43"/>
		</g>
	</g>
	<g>
		<g>
			<defs>
				<path id="SVGID_7_" d="M153.82,24.99c0-1.88,0-3.37-0.1-4.76h2.88l0.1,2.87h0.1c0.99-1.68,2.68-3.27,5.55-3.27
					c2.38,0,4.26,1.48,5.06,3.56h0.1c0.59-0.99,1.29-1.78,1.98-2.28c1.09-0.79,2.28-1.29,3.96-1.29c2.38,0,5.84,1.58,5.84,7.73v10.5
					h-3.17v-10.2c0-3.37-1.29-5.45-3.86-5.45c-1.88,0-3.27,1.39-3.77,2.97c-0.1,0.39-0.3,0.99-0.3,1.58v10.99h-3.17v-10.7
					c0-2.88-1.28-4.86-3.66-4.86c-1.98,0-3.46,1.59-3.97,3.17c-0.19,0.49-0.29,0.99-0.29,1.58v10.7h-3.17V24.99H153.82z"/>
			</defs>
			<use xlink:href="#SVGID_7_"  overflow="visible" fill="#FFFFFF"/>
			<clipPath id="SVGID_8_">
				<use xlink:href="#SVGID_7_"  overflow="visible"/>
			</clipPath>
			<rect x="148.77" y="14.78" clip-path="url(#SVGID_8_)" fill="#FFFFFF" width="35.36" height="28.04"/>
		</g>
	</g>
	<g>
		<g>
			<defs>
				<path id="SVGID_9_" d="M185.41,29.44c0.1,4.46,2.88,6.24,6.24,6.24c2.37,0,3.76-0.4,5.05-0.89l0.59,2.37
					c-1.19,0.5-3.17,1.19-6.04,1.19c-5.55,0-8.91-3.67-8.91-9.21c0-5.45,3.17-9.8,8.52-9.8c5.94,0,7.53,5.15,7.53,8.52
					c0,0.7-0.1,1.19-0.1,1.49L185.41,29.44L185.41,29.44z M195.02,27.16c0-2.08-0.89-5.35-4.55-5.35c-3.37,0-4.76,3.07-5.06,5.35
					H195.02z"/>
			</defs>
			<use xlink:href="#SVGID_9_"  overflow="visible" fill="#FFFFFF"/>
			<clipPath id="SVGID_10_">
				<use xlink:href="#SVGID_9_"  overflow="visible"/>
			</clipPath>
			<rect x="177.39" y="14.49" clip-path="url(#SVGID_10_)" fill="#FFFFFF" width="25.85" height="28.82"/>
		</g>
	</g>
	<g>
		<g>
			<defs>
				<path id="SVGID_11_" d="M205.62,29.94l-2.58,7.93h-3.37l8.62-25.26h3.96l8.62,25.26h-3.47l-2.67-7.93H205.62z M213.94,27.46
					l-2.48-7.23c-0.59-1.68-0.9-3.17-1.28-4.65h-0.1c-0.4,1.49-0.79,3.07-1.29,4.56l-2.48,7.33H213.94z"/>
			</defs>
			<use xlink:href="#SVGID_11_"  overflow="visible" fill="#FFFFFF"/>
			<clipPath id="SVGID_12_">
				<use xlink:href="#SVGID_11_"  overflow="visible"/>
			</clipPath>
			<rect x="194.73" y="7.75" clip-path="url(#SVGID_12_)" fill="#FFFFFF" width="31" height="35.16"/>
		</g>
	</g>
	<g>
		<g>
			<defs>
				<path id="SVGID_13_" d="M224.04,19.84l2.38,9.21c0.49,1.98,0.99,3.86,1.38,5.75h0.1c0.4-1.88,0.99-3.77,1.59-5.75l2.97-9.21
					h2.78l2.77,9.01c0.7,2.18,1.19,4.06,1.59,5.95h0.1c0.3-1.88,0.79-3.77,1.38-5.84l2.58-9.11h3.26l-5.84,18.12h-2.97l-2.77-8.62
					c-0.59-1.98-1.19-3.86-1.59-5.94h-0.1c-0.49,2.18-0.99,4.06-1.68,6.04l-2.88,8.62h-2.97l-5.45-18.12h3.37V19.84z"/>
			</defs>
			<use xlink:href="#SVGID_13_"  overflow="visible" fill="#FFFFFF"/>
			<clipPath id="SVGID_14_">
				<use xlink:href="#SVGID_13_"  overflow="visible"/>
			</clipPath>
			<rect x="215.72" y="14.88" clip-path="url(#SVGID_14_)" fill="#FFFFFF" width="36.15" height="28.03"/>
		</g>
	</g>
	<g>
		<g>
			<defs>
				<path id="SVGID_15_" d="M261.88,33.61c0,1.58,0.1,3.07,0.3,4.35h-2.97l-0.3-2.28h-0.09c-0.99,1.38-2.97,2.67-5.55,2.67
					c-3.67,0-5.55-2.57-5.55-5.25c0-4.35,3.86-6.73,10.89-6.73v-0.4c0-1.49-0.39-4.16-4.06-4.16c-1.68,0-3.46,0.49-4.75,1.39
					l-0.7-2.18c1.48-0.99,3.66-1.58,5.95-1.58c5.55,0,6.93,3.76,6.93,7.43L261.88,33.61z M258.71,28.66
					c-3.57-0.1-7.62,0.59-7.62,4.06c0,2.08,1.38,3.17,3.07,3.17c2.38,0,3.86-1.48,4.36-3.07c0.1-0.3,0.2-0.69,0.2-1.09V28.66z"/>
			</defs>
			<use xlink:href="#SVGID_15_"  overflow="visible" fill="#FFFFFF"/>
			<clipPath id="SVGID_16_">
				<use xlink:href="#SVGID_15_"  overflow="visible"/>
			</clipPath>
			<rect x="242.86" y="14.49" clip-path="url(#SVGID_16_)" fill="#FFFFFF" width="24.36" height="28.82"/>
		</g>
	</g>
	<g>
		<g>
			<defs>
				<path id="SVGID_17_" d="M267.22,19.84l3.96,10.7c0.4,1.19,0.9,2.57,1.19,3.66h0.1c0.3-1.09,0.7-2.48,1.19-3.76l3.57-10.6h3.46
					l-4.95,12.88c-2.08,5.45-3.76,8.71-6.24,10.8c-1.59,1.39-3.17,1.98-4.06,2.17l-0.79-2.77c0.79-0.3,1.88-0.79,2.87-1.59
					c0.89-0.69,1.99-1.98,2.77-3.66c0.1-0.3,0.29-0.59,0.29-0.79c0-0.19-0.09-0.49-0.19-0.89l-6.74-16.14H267.22z"/>
			</defs>
			<use xlink:href="#SVGID_17_"  overflow="visible" fill="#FFFFFF"/>
			<clipPath id="SVGID_18_">
				<use xlink:href="#SVGID_17_"  overflow="visible"/>
			</clipPath>
			<rect x="258.71" y="14.88" clip-path="url(#SVGID_18_)" fill="#FFFFFF" width="26.94" height="35.75"/>
		</g>
	</g>
	<g>
		<g>
			<defs>
				<polygon id="SVGID_19_" points="285.55,15.48 283.97,15.48 283.97,19.84 283.38,19.84 283.38,15.48 281.79,15.48 281.79,14.98 
					285.55,14.98 				"/>
			</defs>
			<use xlink:href="#SVGID_19_"  overflow="visible" fill="#FFFFFF"/>
			<clipPath id="SVGID_20_">
				<use xlink:href="#SVGID_19_"  overflow="visible"/>
			</clipPath>
			<rect x="276.84" y="10.03" clip-path="url(#SVGID_20_)" fill="#FFFFFF" width="13.67" height="14.76"/>
		</g>
	</g>
	<g>
		<g>
			<defs>
				<polygon id="SVGID_21_" points="287.14,14.98 288.62,18.94 288.62,18.94 290.21,14.98 291,14.98 291,19.84 290.41,19.84 
					290.41,17.95 290.41,15.97 290.41,15.97 288.82,19.84 288.42,19.84 286.84,15.97 286.84,15.97 286.94,17.95 286.94,19.84 
					286.24,19.84 286.24,14.98 				"/>
			</defs>
			<use xlink:href="#SVGID_21_"  overflow="visible" fill="#FFFFFF"/>
			<clipPath id="SVGID_22_">
				<use xlink:href="#SVGID_21_"  overflow="visible"/>
			</clipPath>
			<rect x="281.29" y="10.03" clip-path="url(#SVGID_22_)" fill="#FFFFFF" width="14.66" height="14.76"/>
		</g>
	</g>
</g>
</svg>
